<?xml version="1.0" encoding="utf8" standalone="no"?>
<svg viewBox="0 0 94.142548 228.8999" xmlns="http://www.w3.org/2000/svg">
<g transform="translate(-540.22185,-74.068)">
<path d="m585.74628,270.23938c.84584,2.60789 1.81614,5.22415 1.87782,7.99871 .17784,1.64503.35571,3.29005.53355,4.93507 1.68853.21356 3.41695.26533 5.03839-.25479 1.0767-1.19882.58773-3.15017.8863-4.65948-.03612-1.6277-.39374-3.41201 1.5355-3.964l3.93904-2.52099c.21888-7.5869.44284-15.1777 1.12729-22.73991l.40726-5.53899-11.61847-.21923c.20229,3.82876.47868,7.65358.63485,11.48475-.44743,1.92531-.95333,3.88961-2.28036,5.4191-1.51135,2.52993-2.07697,5.51423-2.00014,8.43535-.01242.54203-.03158,1.08433-.08103,1.62441z" fill="#d2b48c" stroke="#1a1a1a" stroke-width=".99921"/>
<path d="m596.17783,203.01518c.3165,1.72435.87001,3.46848 1.04065,5.18068l-1.25982,3.14953c-3.48674.31801-6.97725.53793-10.48003.43843-1.06984.84224-2.55368,1.41212-2.98822,2.82266-.52429.90639-.96758,1.8319-.78084,2.90615 .20277,2.3754-.96897,4.64538-.5582,7.0219-.16767.78192.63758,2.16734-.42945,2.39139-.92022.2559-1.58933.92154-2.30062,1.51835-.26499.74642-.97889,1.44595.24421,1.96071 1.4996,1.11026 4.66961,3.21439 5.91841,4.54393 .5052,2.53823.71989,5.13294 1.23573,7.66133 .37773,1.36314.64777,2.7782 1.66778,3.83166 .80722,1.78422 1.21068,3.77843 1.98801,5.57518l2.53729,3.1716c3.86533.55446 7.71452,1.26452 11.62854,1.34912 1.61548.09012 3.24517.35672 4.80788-.20811l7.01976-1.57945 8.3302-9.86473c.56897-4.21503 1.22796-8.42765 1.74089-12.64417l-1.08324-12.56572c-3.02127-1.98484-5.9388-4.14373-9.21948-5.69331-.98828-.57787-1.31452-1.87287-2.03007-2.74618-.78044-1.23031-1.71684-2.39476-1.8437-3.90113l-1.59425-6.73122-13.59143,2.4114z" fill="#ffdead" stroke="#1a1a1a" stroke-width=".99921"/>
<path d="m593.37604,281.85641c-6.01971.02773-12.04114.03017-18.05411-.28129-5.0664-.04423-10.13862-.08477-15.20203.05179-2.99871.17102-5.99755.72726-8.9851.76564-1.95003-1.25829-3.73637-2.67048-3.02701-5.23697-.18035-6.65345.62193-13.28121.58132-19.92972-.11791-2.53588-.17825-5.07421-.26577-7.6114l13.02075-.93007c.343,3.34002.56772,6.6921.98447,10.02446 1.4406,2.16688 2.06595,5.12695 4.03061,6.78398 6.30942,3.49095 12.59467,7.06227 19.17685,10.01888 1.46152.74389 2.96286,1.33911 4.63117,1.06427 1.48427-.14936 4.35716.80791 3.80639,2.49025l-.69754,2.79018z" fill="#d2b48c" stroke="#1a1a1a" stroke-width=".99921"/>
<path d="m596.78628,202.49159c-.89566-3.61579-2.29788-7.20683-1.72707-11.00104-.37185-3.81183.88285-7.27311 2.7024-10.55933 1.19335-3.76394 4.17434-6.30128 6.80399-9.06954 4.09871-4.36126 8.31006-8.65452 13.36416-11.91609 2.44057-2.71717-2.34106-7.3563-2.4969-10.96442-1.30689-7.74158-2.60014-15.5085-4.7177-23.0861-1.27828-6.17224-7.79743-17.04271-10.06721-22.86032-.85158-4.48175-6.16114.76595-8.05762,1.96318-5.76631,5.76781-11.56164,6.99239-14.40342,15.17432-4.28444,2.42921-7.97311,10.72258-11.53305,14.1221-.26702,3.12759.72831,6.40669.89467,9.60622 1.10682,8.67663 1.80807,17.43023 3.29725,26.04294 1.09938,3.92632 2.58423,7.85894 2.04597,12.01239 .57179,4.35983 3.03864,5.48346 4.6234,8.19745 2.3743,3.00222 5.09453,5.80265 8.21475,8.01223 3.69957,1.38836 7.37154,2.88443 11.05638,4.32601z" fill="#fff" stroke="#1a1a1a" stroke-width=".99921"/>
<path d="m625.7973,235.87657c.66711-2.53452-1.2616,1.95163-.15127,2.52221 .33598,2.45803 2.82378,5.34038 1.64617,7.49125-3.16046,3.92562-5.81004,8.52696-10.30503,11.10717-3.4142.89214-6.99159.65589-10.48365.90364-3.56324.17913-7.19233.03664-10.58872-1.15748-2.23762-.85802-5.70213-.31666-6.49835-3.18568-.61787-2.12058-1.11451-4.89929 1.76859-5.24065 2.73358-.7669 1.80999-4.21527 4.2084-5.37218 1.5704-1.26198 4.21226-2.03891 4.26805-4.41328-.25066-2.68753 1.36055-5.78525 4.40931-5.52211 2.7775.25941 4.63923,3.34929 7.59498,2.77469 1.84267-.30279 3.64214-1.05788 5.27064-1.89895 1.26714-1.87728.70919-4.33274 1.64957-6.33699 .2928-2.27587.31244-4.58309 1.00214-6.77422 .98254-1.84919 2.93639-3.01886 4.57584-4.19643 1.8335-.28384 3.77494-1.90534 5.46844-.55451 2.00358.50383 2.86698,2.23441 3.60882,3.98855 .81102,2.32807.89584,4.9065-.13303,7.18079-.46969,2.39645-3.09607,2.71677-5.01328,2.36125-.97546,1.24024-2.27769,2.51486-1.84403,4.32996 .15251.70974-.26614,1.33165-.45359,1.99297z" fill="#ffd700" stroke="#1a1a1a" stroke-width=".99921"/>
<path d="m597.09625,203.11162c-.94038-2.92366-2.99053-5.65047-2.40231-8.84526 .24753-2.78444-.16736-5.74378.50733-8.41543 2.01965-3.52078 3.58166-7.36109 5.89479-10.67697 3.8408-4.27164 7.51849-8.70903 12.07557-12.25282l5.01477-4.36384c2.49151,11.37686 5.0805,22.75672 6.90727,34.25573 1.04672,11.23042 1.59844,22.50535 2.64509,33.73134 .86268,7.37272 2.02621,14.76105 2.76824,22.11523-.77868,3.32079-1.47668,6.67249-3.40465,9.55287-1.29989,2.86356-4.33829,4.3624-6.44464,6.59289-3.30458,2.68962-6.65296,5.32586-9.92059,8.06052 .2745,5.34952.41442,10.69599-.25271,16.02416-.76027,3.70381-1.99884,7.33719-3.15751,10.94745-2.49023-.56336-5.32558-.59299-7.60351-1.4847-1.86966-1.46355-.22143-3.14613.50079-4.77105 .96618-1.38613 1.00724-3.54853-.95776-3.97487-1.68144-.6603-3.86708-.96434-3.18247-3.29646-.13307-3.07415-.51824-6.17422.62794-9.11678 .68598-4.05556 3.5487-7.23127 5.34469-10.83816 4.28314-6.41504 8.34292-12.97249 12.40076-19.53119-1.66309-9.95779-3.44917-19.89237-5.58033-29.76181-3.66004-4.88883-7.58246-9.51461-11.78076-13.95085z" fill="#ffdead" stroke="#1a1a1a" stroke-width=".99921"/>
<path d="m541.60291,95.84511c-.51344,14.38149-.11294,28.75693.62136,43.12356 .98068,15.68781.42525,31.42918 1.8588,47.09192-.4194,13.64091-4.21206,27.05931-3.18631,40.75116 .08981,5.15026 1.44429,10.26553 2.89955,15.17471 1.75579,5.50212 4.72472,10.5588 6.63793,15.95168 1.33733,8.27738 3.08841,16.58338 3.46634,24.94831-.15436,4.34059-.97316,8.75184-.97465,13.02832 1.15966,2.39937 1.2524,5.80781 4.4549,6.27512 3.53711.9324 7.42446-.79871 11.12526-.52812 11.69773-.33808 23.39941-.28149 35.1006-.27417 1.44641-1.65156 6.20933-2.2279 5.70335-4.15574-2.11801-1.77847-2.03506-5.38158-3.36087-6.98774-4.11325.01782-8.31999.54794-12.3655.42786-5.58556-2.52915-11.50216-4.59478-16.93202-7.29401-4.05813-4.55684-8.13676-9.51812-9.26194-15.67618-1.71876-4.58123-2.31199-9.35161-2.30542-14.22279-1.14639-16.35644-.88553-32.75977-1.78009-49.1273 2.52547-6.39988 5.51603-13.03847 4.46253-20.08195-.16521-5.19938.19315-10.5342 1.24833-15.59992 3.85339-11.06261 8.10822-22.22626 8.73242-34.03602-.01953-6.24916.96737-12.43359 1.67769-18.63748l-17.05102-20.46124-14.88086-4.65028-5.89038,4.9603z" fill="#ffdead" stroke="#1a1a1a" stroke-width=".99921"/>
<path d="m541.9129,95.53509c3.04115,1.76369 7.08011,2.38744 8.84867,5.79828 3.368,4.98695 7.12552,9.69011 11.26905,14.05223 2.35231,2.85227 5.29152,5.09128 8.3383,7.14188 2.78614,2.08107 5.44682,4.32885 7.97854,6.71255 2.06689-2.55692 1.98792-6.22282 2.96066-9.27469 .66248-3.18203 1.17951-6.49574.13451-9.65266-.81506-3.62035.10271,1.97769.14924,3.11125 .3251,2.83147.26495,5.696.05169,8.52369 2.63613-.4248 5.20824-3.58475 7.86125-4.95839 4.26862-3.03386 8.50192-6.17541 12.15528-9.94815 .83801-3.34076-2.66098-5.95102-3.40962-9.08372-1.33807-3.69608-3.98207-6.56901-6.56056-9.43324-2.06591-2.54825-4.2655-5.02008-7.22609-6.52666-3.30073-2.15379-6.61544-4.41092-10.46909-5.43751-2.95886-1.19013-6.10223-1.81433-9.28866-1.79431-3.22953-.35085-6.58321-.34936-9.60649.96238-5.57633,1.58981-9.77988,6.37292-11.45929,11.82256-1.1504,2.50911-1.23732,5.30971-1.72739,7.98452z" fill="#696969" stroke="#1a1a1a" stroke-width=".99921"/>
</g>
</svg>
