<?xml version="1.0" encoding="utf8" standalone="no"?>
<svg viewBox="0 0 226.87358 223.88243" xmlns="http://www.w3.org/2000/svg">
<g transform="translate(-291.73752,-239.85539)">
<path d="m399.84688,387.8479c5.98873.64168 12.09847.91012 17.69975,3.54297 8.72758,2.73846 16.14283,8.75753 24.8809,11.519 5.33183-.12163 7.5218,6.07202 12.05841,8.20453 14.77922,10.44979 24.98664,27.6209 41.78921,34.86302 5.17242,1.48391 8.77617,5.74752 13.26811,8.52911 2.13649,1.6361 11.27541,3.01813 7.92775,6.41131-4.67071-.95427-9.40804-.63729-14.06934-1.87161-5.67251-2.39695-10.69911,2.21285-16.39293.66752-7.17583.03795-2.81296-9.60989-9.35613-11.48476-6.25735-4.87228-12.99108-9.13049-20.48476-11.34374-7.445-3.47753-10.56496-13.33738-18.70272-15.72621-6.01105-1.88654-11.96672-4.23715-18.30465-4.42591-5.87091-.24483-11.32195-2.64331-16.97929-3.93776-5.87681-4.59306-11.77059-9.24766-17.65892-13.85892l14.32461-11.08855z" fill="#d2b48c" stroke="#1a1a1a" stroke-width=".82116"/>
<path d="m372.05713,390.92807c-1.57144-5.67856-3.61236-11.28238-4.88801-17.00804-.3674-7.00197-.21079-13.99374.41712-20.97632 .17207-3.58291.25408-7.47042-1.54544-10.68208-.71689-2.42437-1.533-4.84347-.67485-7.35136 1.30107-5.25869.08682-10.68193.10335-16.02572-.79554-12.28795 1.14007-24.58015.32554-36.87505-.21732-5.18576-1.10112-10.29634-2.6892-15.23803-1.71139-8.03837-3.42641-16.16421-3.8704-24.37058-.71914-2.93179 2.52441-2.41333 3.95864-1.00298 3.14099,1.2377 2.13034,5.43063 3.97927,7.77815 3.10049,4.42873 5.43563,9.52052 9.81657,12.87474 1.29472,1.48096 3.24445,2.92444 3.6622,4.81449 .35842,2.27299-.16863,4.19784-2.09457,5.57268-2.49307,3.5239-1.50824,8.14432-1.91633,12.22481 .36909,3.68488 1.09436,7.27587 2.71172,10.63165 1.94199,4.42627 1.44208,9.44344 2.34388,14.13176 .65644,4.84534 1.64302,9.67813.91973,14.57593-.38331,4.1199-.20727,8.33563-.67607,12.40905-1.5836,2.06504.92095,4.11014 1.49135,6.16467 3.6744,7.11772 6.32804,14.69476 8.86358,22.27347 1.3607,4.4153 1.67103,9.14261 4.12573,13.16778 2.36065,4.47207 3.18458,9.60596 5.12625,14.17623l-.55433,10.1313-18.04901,2.46414-10.88672-13.86069z" fill="#ffdead" stroke="#1a1a1a" stroke-width=".82116"/>
<path d="m371.53067,389.87762c.57094,2.16613 2.25726,3.06657 4.1063,3.71341 2.14867.88864 4.47024,1.1316 6.70393,1.69407 2.1046.39708 4.19897.97722 6.3309,1.13066 2.96528-.02061 5.95681.06054 8.90112-.30005 1.34495-.67998 2.61597-1.52414 3.64002-2.70019 .70823-.43044.60866,1.9168 1.00105,2.59765 .68937,1.7774.40577,3.63864.1582,5.47817-.39213,3.21315-.63012,6.45364-.61189,9.69457 .0116,1.10334 1.247,2.6894.31555,3.42027-2.03406,1.60298-4.06452,3.22654-6.33867,4.42407-1.43955,1.20755-3.18953,1.26517-4.93539,1.28057-1.56024.28184-2.93567-.68836-4.37955-1.15345-1.45693-.58569-2.92748-1.17052-4.50576-1.1585-1.12447-1.30247-1.15161-3.82229-2.26084-5.37409-1.71181-2.63555-3.50324-5.21458-5.59051-7.52394-1.03932-1.32141-1.53774-3.01113-2.30816-4.51339-.59323-2.05049-.81676-4.27234-.84308-6.42757 .00012-1.45661.41907-2.85308.61678-4.28226z" fill="#808080" stroke="#1a1a1a" stroke-width=".82116"/>
<path d="m350.45707,444.26893c-1.94212-.79426.71333-2.74321-1.41002-2.52446-.93072-.31634-2.20587-4.32096-2.2734-5.33315 .97169-4.74197-3.10097-1.65426-2.87417-6.53673l.68798-7.54482-10.93937-1.52459c-.93484,3.0112-1.77659,6.0508-2.43095,9.14759-.86042.82651-2.8852.86621-2.67134,2.41869-.19553,1.85456.29458,3.95072-1.08834,5.38689-1.05564,1.81526-2.1278,3.61446-3.84042,4.79129-1.51636,1.34537-1.68513,1.4905-.07712.05313 1.60782-1.20756 2.86324-2.75159 3.79544-4.60427 .88574-1.07656 1.25958-2.31627 1.04565-3.74331-.00272-1.8935.09686-4.04027-.58162-5.72782-.99242-1.00839-2.23044-1.09607-3.52536-.97042-1.17941.46239-2.27222,1.18985-3.63443.70399-1.11109-.36985-2.87908.71102-3.5467-.25179-.20722-1.43049-1.20931-2.5703-2.34281-1.21612-1.32327.68686-1.49408,2.76954-3.08468,3.10672-1.35555.59558-2.93681-.241-4.38785.1646-1.61709.09171-3.48057.27982-4.82689.54181-1.33367.25953-5.04349,3.36916-3.95984,2.63112s-.19325,13.53787.58126,15.35574c.7672,1.80073 11.98139,8.49112 13.61815,8.35329s10.5615-1.10211 12.01494-1.53668 3.31419-.67734 4.93318-.44741c8.63612-6.17235 14.82652-6.24681 20.81871-10.69329" fill="#ffdead" stroke="#1a1a1a" stroke-width=".82116"/>
<path d="m383.28037,418.62718c-2.38582.36877-5.10297-.48412-7.22317.94641-2.33875,1.3194-4.68247,2.71094-6.23781,5.08599-1.9301,2.05601-3.55921,4.37153-4.53638,7.11295-1.21059,2.90379-2.85211,5.66269-3.90935,8.59364-.50479,1.71228.22114,5.31099-.92729,5.75253-3.28153-1.42827-6.8553.45645-10.1904-.93827-1.76408-1.54266-3.02762-3.76821-4.61974-5.56135-2.52022-.21621-6.15439-.53211-8.49961.83661-2.03796,2.21147-5.26825,3.57065-6.01184,6.79727-1.1395,2.42748-1.53831,5.06377-1.1231,7.74676-3.25561-.00279-.87215-4.93594-1.33024-7.11691 2.48763-4.22491 5.27209-8.29876 6.86811-13.03966 1.46586-3.04236-.6148-7.12119-3.18935-8.83812-1.37876-1.58019 1.39358-4.23512 1.80577-6.27301 2.20162-4.63191 5.32296-8.6626 7.83472-13.09885 1.15184-2.62982 3.9074-3.60759 6.19465-4.81403 3.57494-1.06774 7.36135-1.85617 10.34227-4.40275 3.3505-2.44822 7.29144-3.70471 11.10729-5.03344 3.04291-1.04661.51505,4.544 2.02472,6.44759 .28737,3.3966 2.96314,5.47999 4.60114,8.14653 2.60491,3.69162 5.04819,7.52191 7.01961,11.65011z" fill="#fff" stroke="#1a1a1a" stroke-width=".82116"/>
<path d="m302.55196,430.60616c-1.29805-.1204-2.96154-.3259-4.31277.17019-1.33407.48979-3.0639.33078-4.92165,4.75909-1.866,4.44799-1.11107,12.65689-.38575,16.06091 1.84077,6.49416 9.03631,8.70796 12.08696,9.03399 5.41962.21214 12.04696.57955 16.25941-.44644s3.25548-2.38309 3.59955-4.17124-.94428-2.8584-3.58705-3.29984c-.41807-1.36191-.13272-3.82093-1.64143-4.22539-1.64852-.75179-1.92147,1.50992-3.10137,2.19921-1.35917.90084-2.75218,1.80564-4.41418,1.4817-1.48641.61419-2.42818-1.51263-2.12342-2.5905 1.39608-1.55876 2.54842-3.64061 2.47926-5.86499 .70664-2.35349-2.4383-2.1021-3.6061-3.40147-1.14116-.6963-2.58618-2.40439-3.29057-.30924-1.10627,1.68815-3.18315.74409-4.56638.15707-1.0397-1.62907-.40079-3.82983-.61054-5.71133-.25016-1.8416 1.10347-2.66042 2.13603-3.84172z" stroke="#1a1a1a" stroke-width=".82116"/>
<path d="m349.48059,444.38013c-1.94212-.79427-1.51506-5.35681-3.63841-5.13806-11.11644-1.06561-14.86537,5.78983-16.20925,11.73066-.07847,3.08132.71419,6.01408 2.22067,7.91935 2.63262,1.87877 5.0999,2.36493 7.71465,3.23448 3.26698.44104 6.53777.75796 9.82827.43344 2.62605-.11319 5.23018-.74869 7.8529-.19588 4.01946.7109 8.06666-.03693 12.09822-.02013 4.16851.4187 8.36883,1.10049 12.5438.96596 1.21331-.59192 2.70456-.84997 3.74681-1.64736 .83009-1.24548 1.06914-2.52531.26767-3.86562-2.51629-7.46022-5.33954-14.83184-8.90521-21.78342-2.14723-3.63898-4.87368-6.82248-7.25356-10.26285-.90139-1.32431-1.23023-2.83317-1.2063-4.45572 1.41995-1.55941 3.41214-2.8449 5.05208-4.299 .73348-1.5934 1.47801-3.18356 1.41807-5.00941-1.12042-.77739-2.31123-1.35545-3.64647-1.52458-.39957,1.22383-1.25917,2.99313-2.4761,1.95957-.80132-2.62198.18017-5.58699-1.17032-8.05799-1.41071-.3827-2.62958.60043-2.44994,2.20145-.45812,4.42602-2.0923,8.61749-2.38337,13.0554 .15539,3.52956.42492,7.04221 1.2679,10.46976 1.45035,4.42504 3.69087,8.60321 4.57625,13.25083 .78526,2.70377.19263,5.58362.601,8.36152-.2433-.61234.05257-3.02391-1.5521-2.98052-2.1525-1.10848-4.41098-1.82833-6.78053-2.14097-2.15693-.37625-4.31149-1.19908-6.47458-.41731-1.7429.1985-3.4032-.70694-5.04215-1.7836" fill="#ffdead" stroke="#1a1a1a" stroke-width=".82116"/>
</g>
</svg>
