<?xml version="1.0" encoding="utf8" standalone="no"?>
<svg viewBox="0 0 350.82068 252.42545" xmlns="http://www.w3.org/2000/svg">
<g transform="translate(-562.39182,-775.46147)">
<path d="m688.43442,788.27152c1.70266,4.15301 3.54191,8.26079 4.41244,12.68934 .73779,2.90567 2.46933,5.47373 4.63421,7.52542 5.87174,6.48437 12.48605,12.24159 18.44836,18.64337 3.94357,3.69765 7.1607,8.05133 10.38537,12.36442l4.12628,6.2979-11.45636,8.11493c-4.08202-5.91659-8.53103-11.59397-12.36079-17.67497-2.50865-4.42589-5.22462-8.71519-8.34664-12.73693-2.86021-4.0365-6.06824-7.86328-8.06889-12.4293-1.66292-3.48252-3.79144-6.78102-5.1471-10.38498l-2.83244-10.02242 6.20556-2.38678z" fill="#d9bb7a" stroke="#000" stroke-linecap="round" stroke-linejoin="round" stroke-miterlimit="10"/>
<path d="m562.89182,1000.2142c.50313-5.54003 8.51931-3.00271 9.73202-8.86827 2.9817-3.78682 2.75664-11.43702 9.26929-10.40279 4.89443.1033 4.30357,9.20365 11.09436,6.53155 15.45437-.47431 32.21829-8.44253 46.75742.32845 6.06682,2.19883 11.93143,5.90311 18.57277,3.82482 10.19369-1.38386 20.91098-1.50437 30.78718-3.65426 6.1264-5.56694 14.28921-9.4512 17.09477-17.76212 2.60233-6.81432 9.50959-12.69975 7.90355-20.42229-1.77393-9.91776 1.87459-25.97972-9.91625-30.24702-4.17868-4.40392-6.03593-10.04157-8.20006-15.454-7.85773-6.81827-5.4214-17.73685-5.43394-26.90069 .12229-9.72752.70703-19.64018-.92515-29.24754-3.40128-6.70795-6.45265-13.5125-6.18673-21.2001-.79866-7.59435-.47739-16.71478-7.17899-21.76121-.19751-4.13531-6.30144-10.34596-3.67056-12.41107 6.44822,2.96148 1.73846-6.3752 2.54293-10.24582-.71182-3.25236 3.182-8.69562 5.18506-5.26797 3.86626,1.2243 6.44656,4.25321 8.13867,9.22684 3.287,6.72356 2.21034,14.33636 2.14961,21.43038 3.58536,13.47101 10.96945,25.82037 11.66973,39.9903 1.74935,9.54401 3.81625,19.06938 4.35629,28.73587 1.31843,4.47838 4.59669,9.45983 7.57743,12.07742-4.6052-5.75646-6.1941-13.46297-7.94958-20.47459-3.86396-7.64221 5.50033-4.42767 7.67091-9.16048 4.37703-3.44487 2.8109-10.36191 6.35954-13.38333 4.63518-2.89759 12.73789-2.60104 14.2908,3.53829 3.12445,4.45862 2.31463,7.84618 2.71877,10.55237 1.48271,3.09373 2.12882,3.67741 2.22142,6.00363-1.30909.0587-1.82144,2.2413-1.66389,6.05031 .10413,2.46169.64745,4.77203 1.17411,6.6108 1.07693,7.78756-11.74581-.24247-8.6878,7.01609-.18238,6.22944 7.01704,6.53957 10.37234,10.5263 3.23122,4.45587 7.37932,8.57916 10.28509,13.11558 4.90466,14.48247 5.67585,29.36643 3.33539,44.3752-.5195,10.63363-1.04297,21.26655-1.70059,31.89286 16.00084,3.35599 31.82961,8.07688 47.94025,10.56192 10.71648-.97517 20.11019,5.65197 30.75714,5.60017 14.8643,2.3668 30.27338,7.0769 45.23154,3.5 6.92109-2.9785 12.70911-7.94674 19.71912-10.64577 3.76527-3.33801 9.37189-5.03852 9.34212-10.92574 3.4731-5.65372 9.74356.57767 5.85513,5.09764-2.71739,4.82794-.75343,11.29702-5.50285,15.36467-3.51743,5.3207-11.92529,8.5887-10.13792,16.0548 .00346,6.1754-5.65427,8.3152-10.96769,7.3985-12.64497-8.0944-28.25492-4.6438-42.42738-5.9006-14.51704-.5553-29.25199-1.4741-43.32411-4.9161-25.70427-1.5962-51.1847-5.9001-76.79683-8.6109-10.21828-1.5877-20.44799-2.5581-30.72639-.8992-14.00815.7963-28.14557,3.112-42.07203,2.9483-19.24982-5.2205-39.1018-9.9151-59.13747-9.2823-6.29606,1.0167-12.17792,4.3358-18.84119,3.2712-3.16813.3196-6.18017-1.8305-8.65735-3.5801z" fill="#fdd99b" stroke="#000" stroke-linecap="round" stroke-linejoin="round" stroke-miterlimit="10"/>
<path d="m703.335,850.63804c.37931-1.19698.6315-2.46875 1.0885-3.62001 1.51082-1.45798 2.93001-3.03593 4.4984-4.41853 1.5535-.85072 3.06953-1.82786 4.64632-2.59997 2.00193-.07697 4.01477-.30385 6.00996-.28828 2.1818.48531 4.41237.82959 6.56369,1.40301 1.63947.84914 3.34377,1.61314 4.94289,2.51528 .97792,1.14253 2.09405,2.2157 2.9871,3.40082-.07668.46611.69438,1.6272-.00542,1.58247-.71079.17729-1.20828-.21308-1.66702-.70659-.69166-.53762-1.29061-1.26375-2.03942-1.68515-2.12224-.42803-4.30082-.91933-6.44768-.34571-.99765-.07749-1.62969.58504-2.26719,1.23094-.45879.49406-1.09601.89424-1.44922,1.44386-.13132,1.12077-.41232,2.25894-.45058,3.36888 .38164,1.15727 1.16293,2.23756.97278,3.50495 .23062.87508-.24806,1.13499-1.06223,1.10393-.92197.03751-1.76287.33455-2.54815.80961-.59412.29881-1.38265.47181-1.14641,1.30803-.08028,1.83059-.17085,3.66096-.13749,5.49392-1.26116-.04044-2.57114.0804-3.80217-.05952-.68697-.40174-1.3265-.99606-2.04264-1.2794l-3.0999.32635c-.53447.71958-1.2719,1.37136-1.68232,2.13237 .09974,1.10814.02633,2.28391.2321,3.35063 .65991.6624 1.10941,1.6008 1.91204,2.07598 1.26173.71186 2.67268.98643 4.07017,1.30047 .7222.17816 1.48073.04332 2.21875.08525 .04632.84855.39786,1.73648.25424,2.56052-.82764,1.95446-1.64494,3.91323-2.44821,5.87783l-1.85645,1.1814c-.8372-1.33444-1.7787-2.62667-2.55194-3.987-.5679-2.8656-1.15444-5.72827-1.42083-8.64138-.74639-6.14301-1.49694-12.28545-2.27167-18.42496z" stroke="#000" stroke-linecap="round" stroke-linejoin="round" stroke-miterlimit="10"/>
<path d="m630.2584,1002.3606c1.24115-2.0539 5.37957-.7992 5.18904-3.01129-.20275-2.73405-.12057-5.88702 1.4314-8.16588 1.85958-1.55544 3.32384-4.49972 6.15103-3.54968 5.34715.07131 10.87581,1.13885 16.11415.06275 5.35869-2.96235 11.53168-3.56285 17.40314-4.94591 4.44424-.58766 9.21693-.20642 13.28637-2.32984 1.84666-5.30927 5.06575-10.03191 9.72398-13.22687 3.41333-2.33377 6.81802-4.69331 9.85317-7.53161 4.26951,5.07855 8.53219,10.56314 14.85156,13.16388 3.76108,2.1696 7.58664,4.32822 12.01013,4.63577 3.31544.72455 6.63556.90376 9.91121-.11353 2.73127-1.38993 4.61847-4.34255 6.60045-6.71621 1.09283-3.8948 1.40086-2.80307 1.33849.64222 .0586,3.06137.31085,6.10843.68678,9.14635-2.77823,3.67997-5.66398,9.68822-9.50042,11.35431 4.26442-1.70927 8.89541-11.25152 10.15331-11.20019 10.71799.43045 22.37894,5.91449 26.2092,7.78664 2.23463.80687 4.89778.42801 7.0873,1.7195 4.56333.80758 9.53417.08553 13.87525,2.23787 2.13011,1.75739 13.65416,3.84152 6.72026,4.81775-4.91455,2.55556-7.22874,8.19307-9.90017,12.83057-1.24954,2.413-2.85366,4.9376-2.62147,7.7513 2.36375.0871 3.2132,1.3088 6.32876-.5908-1.95444-.1298-4.2417-.857-6.19206-.9715 .25484,3.1387-3.62643,1.0119-5.53734,1.3935-7.01825-.6744-13.89067-2.5187-20.98482-2.2732-6.98852-.3878-13.92679-1.488-20.94983-1.3516-7.1971-.2606-14.33077-1.5087-21.55684-1.252-3.72367.0422-7.37027-.4459-10.76644-2.0427-4.34084-.8387-8.82982-.4338-12.82636,1.5189-6.33951,1.7228-12.87877,2.3259-19.43028,2.0252-10.11824.2384-20.20364-.5256-30.27288-1.3879-6.90029-.6409-13.93052-.1649-20.67318-1.9874-2.25956-2.2627-4.64115-5.009-3.71289-8.4384z" fill="#369" stroke="#000" stroke-linecap="round" stroke-linejoin="round" stroke-miterlimit="10"/>
<path d="m708.39805,958.31211c1.09323-1.3603 2.37331-2.623 2.59091-4.44073 .511-1.51332 1.00055-3.02862.576-4.62787-.20491-2.68064-.53693-5.3364-1.46325-7.87582-1.35457-3.82349-1.44244-7.98829-3.18492-11.68203-1.33299-3.09472-1.59848-6.6204-3.64509-9.38649-1.59034-2.80781-3.38763-5.54159-4.76174-8.44635-.47364-2.12161-1.26955-4.18404-1.41941-6.36511 1.39172.43609 1.64702,1.69016 1.86135,2.97373 .40969,2.61622 1.98681,4.82108 3.15633,7.13983 1.20035,1.40803 2.12684,3.0968 3.75826,4.06295 1.00746-1.71478 1.96249-3.47375 3.65481-4.61136 2.1462-1.78761 4.51122-3.37021 6.83323-4.88798 1.76311.11177.99342-1.73331 1.13057-2.87776 .908-4.65024 1.13354-8.48152-.00586-13.54124-1.17369-.81806-6.0182-8.20093-4.62423-7.45389-.11656.01075 6.60814,6.09412 6.23996,7.45249 1.07684,4.77784 1.0698,10.10056.44175,15.28736 3.6515-.02715 7.28137-.23976 10.89084-.80957 5.11649-.01898 10.23977-.37043 15.35635-.60003 1.52486-.05429 3.17197-.51143 4.62234-.32026 1.22621,1.14786 2.9745,1.91411 3.307,3.71523 .87913,2.28515 2.06955,4.49121 2.07357,6.9987 1.05628,7.82472 1.27059,15.73803 1.52658,23.6166-.28224,2.8143-1.1787,5.62785-.46666,8.44338 .27883,2.36649 2.06556,4.2307 2.82688,6.46283 .08961.97696 1.82632,2.5161.68787,3.07391-1.77749,1.11645-3.66524,1.9575-5.7394,2.3329-4.0879,1.2567-8.4173,1.21374-12.63302,1.75832-4.72662.36395-9.36506,1.42785-14.10788,1.64861-2.71845.27668-5.4496.3813-8.17571.55419-.17453-3.14656.02133-6.41072-.6937-9.46486-.57183-.83742-1.16398-3.21871-1.69706-1.11146-.89271,1.83053-1.68622,3.73029-3.29734,5.05938-1.50074,1.49321-3.04716,3.18031-5.11305,3.82926-.29435-1.96612-.62838-3.91002-.50628-5.90686z" fill="#eee" stroke="#000" stroke-linecap="round" stroke-linejoin="round" stroke-miterlimit="10"/>
</g>
</svg>
