<?xml version="1.0" encoding="utf8" standalone="no"?>
<svg viewBox="0 0 229.40434 159.25786" xmlns="http://www.w3.org/2000/svg">
<g transform="translate(-871.18032,-792.38947)">
<path d="m926.89989,926.38049c-10.9497-1.10736-23.65644.39566-35.45613,1.15496-2.6629-.11517-5.40226-.25515-4.31506-3.61744 1.33163-2.75798 3.68972-4.89133 6.66743-5.80318 4.74126-2.40174 9.77845-4.08192 14.84122-5.65211 2.55704-.98156 5.62824-1.80893 7.32735-3.97952 1.89871-1.69612 4.31404-5.48659 5.93548-8.96387 2.33958-1.58931 4.93057-2.42451 7.63281-2.66511 2.63747.00093 4.70871.52869 5.36223,2.81593 1.47943,3.49589 2.52882,5.80551 6.32675,7.35061 2.93504,1.23167 6.21871,1.1493 9.30441,1.82738 2.56577.67489 6.02603.41604 8.02598,1.6816l2.65915,13.10579c-4.5586,2.38066-9.02382,4.99412-13.86132,6.78527-5.29727-.29884-10.42314-1.85886-15.63192-2.76129-1.62541-.34723-3.24517-.73853-4.81838-1.27902z" fill="#d9bb7a" stroke="#000" stroke-linecap="round" stroke-linejoin="round" stroke-miterlimit="10"/>
<path d="m911.6958,937.36157c-10.9497-1.10736-23.65644.39566-35.45613,1.15496-2.6629-.11517-5.40226-.25515-4.31506-3.61744 1.33163-2.75798 3.68972-4.89133 6.66743-5.80318 4.74126-2.40174 9.77845-4.08192 14.84122-5.65211 2.55704-.98156 5.62824-1.80893 7.32735-3.97952 1.89871-1.69612 4.31404-5.48659 5.93548-8.96387 2.33958-1.58931 4.93057-2.42451 7.63281-2.66511 2.63747.00093 4.70871.52869 5.36223,2.81593 1.47943,3.49589 2.52882,5.80551 6.32675,7.35061 2.93504,1.23167 6.21871,1.1493 9.30441,1.82738 2.56577.67489 6.02603.41604 8.02598,1.6816l2.65915,13.10579c-4.5586,2.38066-9.02382,4.99412-13.86132,6.78527-5.29727-.29884-10.42314-1.85886-15.63192-2.76129-1.62541-.34723-3.24517-.73853-4.81838-1.27902z" fill="#fdd99b" stroke="#000" stroke-linecap="round" stroke-linejoin="round" stroke-miterlimit="10"/>
<path d="m930.32212,921.87229 4.70556-10.19543c-.05487-2.6431-.56993-5.61323.82563-7.99356 2.72929-.38797 5.73585.00335 8.57829-.2379 20.26796-.92854 40.56394-.91667 60.843-1.49851 .989.08839 2.361-.28119 3.1083.09626l2.7186,17.47636c-4.6355,2.55888-9.1801,5.35355-14.08751,7.36685-10.89716.19499-21.82949.03232-32.74077.08368l-27.677-1e-005-6.2741-5.09774z" fill="#369" stroke="#000" stroke-linecap="round" stroke-linejoin="round" stroke-miterlimit="10"/>
<path d="m979.26133,894.87913c3.34966-1.33071 6.75408-2.57057 10.06965-3.95782 2.78771-2.37693 5.51579-4.85853 8.34079-7.17003l11.53583-3.8453c3.1599,4.57223 6.4509,9.15865 8.5331,14.34386 1.1707,1.97033-.3487,3.33641-2.2652,3.61049-5.683,2.22649-11.2797,4.70519-16.92007,7.01077l-19.2941,1.65378-11.09119-9.98206 11.09119-1.66369z" fill="#d9bb7a" stroke="#000" stroke-linecap="round" stroke-linejoin="round" stroke-miterlimit="10"/>
<path d="m1058.1,918.46948a23.29151,21.62783 0 1,1 -46.583,0 23.29151,21.62783 0 1,1 46.583,0z" fill="#888" stroke="#000" stroke-linecap="round" stroke-linejoin="round" stroke-miterlimit="10" transform="translate(7.55454,5.40592)"/>
<path d="m911.49976,934.81274c6.49308-6.65141 11.99456-18.13973 21.81659-18.90496 17.45469-.9643 34.90817-1.82559 52.3766-2.43259 5.88961-.60699 14.83485,1.23753 12.42294-7.58288 1.28692-26.09347 4.83221-52.00071 6.25251-78.08305 .575-9.95016 2.0083-20.01591 9.3439-27.37372 6.0568-5.39503 14.9197-8.27056 23.0698-7.38881 7.0429.21044 14.3415,2.04352 20.3436,5.6318 5.9833,3.54597 11.8226,9.03052 15.5387,14.35483 3.8574,6.58819 10.0865,15.00124 10.7756,22.32978 2.7326,11.72114-11.7985,14.55684-14.2629,20.99106-1.5056,8.7179-12.9172,10.78846-15.8559,1.62853-1.9619-3.16728-3.2082-14.17697-3.6027-13.16039 2.409,12.70354 2.0002,25.81319-.121,38.51727-3.8455,14.21151-4.5175,29.30652-10.436,42.88743-1.2137,8.94552-6.4418,16.63918-14.0717,21.35516-8.2817,2.59599-16.8627,3.49187-25.50445,3.38047-25.12837.54926-50.26573-.31717-75.39458-.15955-6.57395-.13229-19.73822-1.70017-17.63933-10.54472 .27787-2.83555 3.28647-3.59456 4.94832-5.44566z" fill="#369" stroke="#000" stroke-linecap="round" stroke-linejoin="round" stroke-miterlimit="10"/>
<path d="m1051.0991,851.68052c3.3007-2.45319 6.4505-5.14634 10.2659-6.78142 4.0124-2.27316 8.2319-4.0901 12.562-5.66344 2.9174-1.24398 6.1054-1.81738 9.1828-2.4252l6.0261.75324c2.0287,7.18995 4.1285,14.3571 6.7607,21.35359 .9634,2.79617 2.233,5.52745 2.1253,8.55064 .9035,10.35137 1.6288,20.71411 2.011,31.09874 .063,6.55076.2496,13.20015-.866,19.67208-1.9307,7.50234-2.7085,15.3252-5.4541,22.59685-2.4734,3.62018-8.0567,3.61912-11.6353,6.13321l-23.9201-2e-005c-2.4779-4.40402-5.1445-8.73469-7.5048-13.18439-2.2403-10.18306-5.3794-20.76685-5.8028-30.59107-.2281-14.68327 1.8732-27.03118 3.6747-40.47911l2.5746-11.0337z" fill="#eee" stroke="#000" stroke-linecap="round" stroke-linejoin="round" stroke-miterlimit="10"/>
<path d="m1067.4363,921.49796c-9.974-.57411-19.9589-.62044-29.9463-.5545-5.899-1.30487-11.9332-2.13451-17.7463-3.74142-9.2413-3.4556-18.5627-6.71472-27.48676-10.9493-2.70305-1.0642-5.30536-2.29371-7.39735-4.36071-2.29195-2.00863-5.03351-3.7342-7.05249-5.9147-.60353-2.20511-.61997-4.71035-2.5926-6.21554-1.12671-1.51139-2.32946-2.89575-4.36378-2.89096-2.17179-.35479-4.42158-1.26857-6.54512-1.27748-1.94442,1.19498-4.24229,2.0489-5.97264,3.45044-.88022,2.05217-2.29957,4.03012-2.86179,6.12609 .69616,3.87055 1.3069,7.76682 3.1525,11.29138 .31574,2.05487 1.83317,2.90025 3.69111,3.40291 2.76064,1.49057 5.8535,1.77413 8.90547,2.2063 2.2702,2.808 4.05381,6.11159 7.30156,7.92396 2.99283,2.24082 5.92178,4.59208 9.51553,5.79403 7.21006,3.03425 14.20976,6.58437 21.46546,9.48709 5.9708,1.81741 11.7345,4.46323 17.9911,5.13783 5.2833.93925 10.56,1.93847 15.9475,1.92068 2.3705.24087 4.6039.65523 6.8653,1.50202 3.0119,1.60408 5.4444,3.98122 7.9794,6.22176 3.8532.37712 7.9046,1.03664 11.5583.60666 2.7609.06983 4.6859-.25466 6.6483-1.25602 2.0872-1.45265 4.2604-2.11426 6.2477-4.40212 1.7214-1.97042 3.3504-3.65072 3.7915-7.44263 .2308-3.644.0694-5.71947-1.0724-8.5792-1.2866-2.61514-3.8423-5.06078-7.8569-6.42027-1.9872-1.06677-5.0758-1.32125-7.3229-1.0663h-2.8434z" fill="#fdd99b" stroke="#000" stroke-linecap="round" stroke-linejoin="round" stroke-miterlimit="10"/>
</g>
</svg>
