<?xml version="1.0" encoding="utf8" standalone="no"?>
<svg viewBox="0 0 349.08331 180.03453" xmlns="http://www.w3.org/2000/svg">
<g transform="translate(-256.80363,-558.09223)">
<path d="m475.6684,577.39752c1.7453-3.00174 3.7357-5.96647 4.36573-9.44792 .83643-2.71247 2.30621-5.15984 3.6177-7.65822 1.43003-1.14566 3.52587-2.11891 5.34185-1.51443 2.68003.83825 5.41811,1.73668 7.56837,3.62329 2.34694,1.76207 5.0907,2.84424 7.88771,3.64971 3.10959,1.11969 6.34176,1.90241 9.60095,2.37389 1.9373,1.0724 3.92322,2.52558 6.215,1.64487 2.96327.48736 2.77431,5.03578-.41513,4.94608-2.88327,1.19179-5.99549.21702-8.99727.46357-3.87914.11936-7.72532.7155-11.61279.71277-2.12375.36115-4.78193-.39406-6.53211.90768-1.82221,1.78619-3.60795,3.6272-5.1128,5.6944l-11.92721,9.08741c0-4.8277 2e-005-9.65541 0-14.4831z" fill="#ffdead" stroke="#1a1a1a" stroke-width=".99921"/>
<path d="m508.8942,708.02887c-1.14972-7.83499-7.43023-17.57408-5.37582-24.21937 4.74864-3.36631 11.16976-7.6151 9.94321-14.35262-2.30241-16.17309-3.67515-32.66374-2.46843-48.98968 1.24164-8.09203 3.47702-16.03602 4.44602-24.15134-1.21345-5.04882-4.23097-9.81823-5.14966-14.66286 2.81709-4.86553 6.43741-6.50462 11.79135-7.41667 .36594-5.93668 6.03636-.53482 3.60333,3.35754 .09799,17.75005-.55119,35.54748.69167,53.24291-.13989,10.07105-1.5899,20.79635 2.64815,30.27068 5.89081,6.29524 5.01809,14.97561 6.34398,22.65541 1.80509,6.77531 5.24024-.91438 9.52745,2.12129 5.95474.37118 10.87444,1.50406 8.12233,8.28287-.59107,4.78854.24768,8.65547-4.7537,9.39787-5.11081,3.91658-2.6111,11.19921 4.13609,9.8233 7.36382,1.14806 14.34635,3.85946 21.45441,5.87635 4.92757-.17238 8.17662,2.362 9.80247,6.89598-4.10988-5.58822-4.20274-12.61206-10.7098-16.48028-2.93477-3.84626-14.24156-8.5799-8.33318-13.78369 6.20716-5.29316 11.5876-12.31734 13.00157-20.49132 2.299-3.13799 2.95852,6.69512 1.62041,9.36117-2.81806,5.54626-10.55396,14.47287-1.13477,17.82531 7.26703,5.21862 15.26501,9.56248 21.08593,16.53821 4.39291,3.23438 10.49331,12.29942 1.76186,14.17852-14.12461.13258-28.47214,1.7079-42.43668-1.257-7.10929-1.1216-14.70716-1.85951-21.60782.67861-6.74391-1.09344-16.51801,1.79402-21.35458-1.80523l-6.65579-22.89596z" fill="#ffdead" stroke="#1a1a1a" stroke-width=".99921"/>
<path d="m453.51788,698.08954c4.50669-2.22492 8.56828-5.82163 13.83949-5.98556 7.5552-1.14908 15.50113.46516 22.70177-2.74602 4.00402-1.67419 8.13171-3.12864 11.87764-5.35362 9.17368,2.51679 18.64962.30166 27.97203.73809 1.21796-.31851 6.96906-1.91392 4.51196.14951-3.66309,1.74104-10.52109,1.11392-11.29447,5.849-1.56484,6.2882 1.48833,12.65453 5.02586,17.6974 2.41714,2.64006 5.16707,6.6603 9.13955,6.34036 2.2943-.82002 8.0183-3.70689 8.76194-1.87117-4.34616,1.03059-8.65536,2.58086-12.19705,5.42616-5.35781,3.33976-10.90079,6.68004-14.73647,11.83348-3.13109,4.24161-8.53824,2.17946-12.92568,2.61888l-47.5649.23318-8.51944-17.32288 3.40777-17.60681z" fill="#f5f5f5" stroke="#1a1a1a" stroke-width=".99921"/>
<path d="m540.27411,685.02643c.62097-3.34235.61187-6.85648 1.98142-10.01066 .07506-1.94225 1.59344-3.50277 3.47375-2.43693 2.41831.08989 3.79705-2.2636 5.65646-3.42992 1.48247-1.12423 3.00317-2.19655 4.50734-3.29124l16.3289,5.11168c1.74037,1.71226 3.7031,3.23444 5.11168,5.25363-.61493,3.33632-1.36771,6.73648-3.22951,9.627-1.61365,3.43848-4.17705,6.32702-7.11388,8.69599-1.3917,1.08507-1.93723,2.99999-3.65872,3.69108-3.72407,1.88191-7.66801,3.5365-11.85795,3.95406-1.7499.08589-3.84312-.00428-5.02619-1.48275-1.71559-1.62259-3.9161-3.00816-4.63718-5.3842-.95217-1.88422-1.99789-3.89699-1.62777-6.08152l.09165-4.21622z" fill="#ffdead" stroke="#1a1a1a" stroke-width=".99921"/>
<path d="m289.37677,723.36383c-4.39206.15617-8.78735.38798-13.18053.12271-3.74063-.0957-7.48161-.36112-11.22139-.36289-1.82256.4243-4.38079-.62024-5.45158,1.30511-1.13135,1.27169-2.41783,2.48683-1.94653,4.3362 .03288,2.411-.10247,4.8316-.2735,7.22479 1.50341,1.59557 3.74068,1.73612 5.82508,1.57831 2.1185.29854 4.02531-.59376 5.95007-1.33632 1.37401-.39081 2.38035-1.44981 3.63335-2.07659h7.86162c-.02968-1.98709 2.39353-.84593 3.63574-1.13678 1.84516.00716 3.69074.01819 5.53546-.03158l8.71961-3.37534-9.0874-6.24762z" fill="#ffdead" stroke="#1a1a1a" stroke-width=".99921"/>
<path d="m289.9624,734.45581-.40161-12.04828c8.84354-.80687 17.67223-1.70095 26.22691-4.2036 7.43472-2.06331 15.2736-.43793 22.88792-1.24485 6.85447.72777 12.50804-4.54011 19.33617-4.16112 11.18123-.92853 22.42427-1.91615 33.43527-4.05669 10.03673-2.51939 20.39123-4.01553 29.84182-8.4223 4.76201-7.17651 7.96223-15.29509 11.78572-22.98311 2.29088-8.18479 4.23917-16.49555 8.33373-24.01718 3.96085-9.0789 8.60628-17.9308 12.45469-27.0047 .69288-6.87658.53649-13.92377 3.35557-20.37321 1.55284-6.12046 5.65967-11.15418 8.89985-16.45276 2.8883-4.06854 7.43032-7.25299 8.18295-12.46329 2.31885,3.0913 5.66945,4.90087 9.56624,4.90957 3.77481-.18311 6.75535.08462 3.40276,3.94706-5.13688,8.01503-5.54851,17.80274-8.96629,26.52523-4.26672,10.96935-5.72846,22.67583-7.63549,34.20695-.63679,10.36537.17369,20.90605-2.66541,31.00465 .32313,3.65591.69205,7.68729 2.00594,11.12937 1.77435,2.53143 7.63289,1.6975 2.16614,4.4022-4.0308,2.27755-6.91265,6.17219-9.01174,10.15854-2.048,5.08985-2.51058,10.44931-2.5169,15.88635l-1.20481,14.45801c-29.56316.45456-59.14765.61824-88.68608-.80322-13.32301-.48893-26.56862.94468-39.82914,2.00799-13.66756.45453-27.3096.41854-40.96421-.40161z" fill="#369" stroke="#000" stroke-width=".99921"/>
<path d="m544.24988,678.77881c1.95445-1.10701 3.93638-2.30974 5.2629-4.17269 1.38427-1.53037 2.75158-3.07602 4.10844-4.63072 2.10896-.78851 4.46722-1.09149 6.64684-.41378 2.1924.2312 4.45152.59017 6.3044,1.87184 2.23938,1.13733 4.58107,2.0547 6.92748,2.94368 .68262,2.85276 1.26627,5.74865 1.37235,8.688 1.26713-.70266 1.75544-2.3719 2.38653-3.63556 .44647-1.92461.68391-3.91297.85684-5.87713-.11484-2.01973-.89103-3.93393-1.52554-5.82896-.93452-1.4766-2.27341-2.65029-3.4086-3.96925-1.78911-1.61103-3.8706-2.86011-5.84726-4.21717-1.84927-.75907-3.74677-1.63376-5.76651-1.75286-2.22533.04106-4.55727-.06333-6.5997.98216-2.21993.95278-3.64986,2.98136-5.35884,4.59318-1.83946,1.8604-3.45125,3.94899-4.70378,6.24386-1.38586,1.43893-3.18243,3.06791-2.61261,5.29406 .31195,1.44788 1.45566,2.5135 1.95706,3.88134z" stroke="#1a1a1a" stroke-width=".99921"/>
</g>
</svg>
